<mxfile host="Electron" modified="2024-07-22T23:58:00.773Z" agent="Mozilla/5.0 (Macintosh; Intel Mac OS X 10_15_7) AppleWebKit/537.36 (KHTML, like Gecko) draw.io/24.5.3 Chrome/124.0.6367.207 Electron/30.0.6 Safari/537.36" etag="Oqp426bhmbtMKW5AxLSf" version="24.5.3" type="device">
  <diagram name="Page-1" id="o2-VMbF40ZvzbHeDxm95">
    <mxGraphModel dx="3187" dy="2016" grid="1" gridSize="10" guides="1" tooltips="1" connect="1" arrows="1" fold="1" page="1" pageScale="1" pageWidth="850" pageHeight="1100" math="0" shadow="0">
      <root>
        <mxCell id="0" />
        <mxCell id="1" parent="0" />
        <mxCell id="Mxw5a7tmivOchAvpzlhm-1" value="" style="strokeWidth=1;shadow=0;dashed=0;align=center;html=1;shape=mxgraph.mockup.containers.browserWindow;rSize=0;strokeColor=#666666;strokeColor2=#008cff;strokeColor3=#c4c4c4;mainText=,;recursiveResize=0;" vertex="1" parent="1">
          <mxGeometry x="10" y="30" width="830" height="570" as="geometry" />
        </mxCell>
        <mxCell id="Mxw5a7tmivOchAvpzlhm-2" value="Home" style="strokeWidth=1;shadow=0;dashed=0;align=center;html=1;shape=mxgraph.mockup.containers.anchor;fontSize=17;fontColor=#666666;align=left;whiteSpace=wrap;" vertex="1" parent="Mxw5a7tmivOchAvpzlhm-1">
          <mxGeometry x="60" y="12" width="110" height="26" as="geometry" />
        </mxCell>
        <mxCell id="Mxw5a7tmivOchAvpzlhm-3" value="https://www.truck-dash.com" style="strokeWidth=1;shadow=0;dashed=0;align=center;html=1;shape=mxgraph.mockup.containers.anchor;rSize=0;fontSize=17;fontColor=#666666;align=left;" vertex="1" parent="Mxw5a7tmivOchAvpzlhm-1">
          <mxGeometry x="130" y="60" width="250" height="26" as="geometry" />
        </mxCell>
        <mxCell id="Mxw5a7tmivOchAvpzlhm-7" value="TRUCK-DASH" style="html=1;shadow=0;dashed=0;fillColor=#000000;strokeColor=none;fontSize=16;fontColor=#ffffff;align=center;spacing=15;" vertex="1" parent="Mxw5a7tmivOchAvpzlhm-1">
          <mxGeometry y="110" width="830" height="30" as="geometry" />
        </mxCell>
        <mxCell id="Mxw5a7tmivOchAvpzlhm-14" value="" style="rounded=0;whiteSpace=wrap;html=1;fillColor=#000000;" vertex="1" parent="Mxw5a7tmivOchAvpzlhm-1">
          <mxGeometry y="140" width="130" height="430" as="geometry" />
        </mxCell>
        <mxCell id="Mxw5a7tmivOchAvpzlhm-25" value="" style="html=1;shadow=0;dashed=0;shape=mxgraph.bootstrap.rrect;rSize=5;strokeColor=none;html=1;whiteSpace=wrap;fillColor=#6C767D;fontColor=#ffffff;sketch=0;" vertex="1" parent="Mxw5a7tmivOchAvpzlhm-1">
          <mxGeometry x="10" y="230" width="110" height="130" as="geometry" />
        </mxCell>
        <mxCell id="Mxw5a7tmivOchAvpzlhm-27" value="&lt;font style=&quot;font-size: 10px;&quot;&gt;TRIPS&lt;/font&gt;" style="strokeColor=inherit;fillColor=inherit;gradientColor=inherit;fontColor=inherit;html=1;shadow=0;dashed=0;perimeter=none;whiteSpace=wrap;resizeWidth=1;sketch=0;" vertex="1" parent="Mxw5a7tmivOchAvpzlhm-25">
          <mxGeometry width="110.00000000000001" height="30" relative="1" as="geometry">
            <mxPoint y="30" as="offset" />
          </mxGeometry>
        </mxCell>
        <mxCell id="Mxw5a7tmivOchAvpzlhm-28" value="&lt;font style=&quot;font-size: 10px;&quot;&gt;FUEL LOG&lt;/font&gt;" style="strokeColor=inherit;fillColor=inherit;gradientColor=inherit;fontColor=inherit;html=1;shadow=0;dashed=0;perimeter=none;whiteSpace=wrap;resizeWidth=1;sketch=0;" vertex="1" parent="Mxw5a7tmivOchAvpzlhm-25">
          <mxGeometry width="110.00000000000001" height="30" relative="1" as="geometry">
            <mxPoint y="90" as="offset" />
          </mxGeometry>
        </mxCell>
        <mxCell id="Mxw5a7tmivOchAvpzlhm-30" value="&lt;font style=&quot;font-size: 10px;&quot;&gt;DRIVERS&lt;/font&gt;" style="strokeColor=inherit;fillColor=inherit;gradientColor=inherit;fontColor=inherit;html=1;shadow=1;dashed=0;perimeter=none;whiteSpace=wrap;resizeWidth=1;align=left;spacing=10;sketch=0;" vertex="1" parent="Mxw5a7tmivOchAvpzlhm-25">
          <mxGeometry width="110.00000000000001" height="30" relative="1" as="geometry">
            <mxPoint as="offset" />
          </mxGeometry>
        </mxCell>
        <mxCell id="Mxw5a7tmivOchAvpzlhm-31" value="" style="shape=triangle;direction=south;fillColor=#ffffff;strokeColor=none;perimeter=none;sketch=0;" vertex="1" parent="Mxw5a7tmivOchAvpzlhm-30">
          <mxGeometry x="1" y="0.5" width="10" height="5" relative="1" as="geometry">
            <mxPoint x="-17" y="-2.5" as="offset" />
          </mxGeometry>
        </mxCell>
        <mxCell id="Mxw5a7tmivOchAvpzlhm-32" value="&lt;font style=&quot;font-size: 10px;&quot;&gt;TRUCKS&lt;/font&gt;" style="strokeColor=inherit;fillColor=inherit;gradientColor=inherit;fontColor=inherit;html=1;shadow=1;dashed=0;shape=mxgraph.bootstrap.bottomButton;rSize=5;perimeter=none;whiteSpace=wrap;resizeWidth=1;resizeHeight=0;align=left;spacing=10;sketch=0;" vertex="1" parent="Mxw5a7tmivOchAvpzlhm-25">
          <mxGeometry y="1" width="110.00000000000001" height="30" relative="1" as="geometry">
            <mxPoint y="-70" as="offset" />
          </mxGeometry>
        </mxCell>
        <mxCell id="Mxw5a7tmivOchAvpzlhm-33" value="" style="shape=triangle;direction=south;fillColor=#ffffff;strokeColor=none;perimeter=none;sketch=0;" vertex="1" parent="Mxw5a7tmivOchAvpzlhm-32">
          <mxGeometry x="1" y="0.5" width="10" height="5" relative="1" as="geometry">
            <mxPoint x="-17" y="-2.5" as="offset" />
          </mxGeometry>
        </mxCell>
        <mxCell id="Mxw5a7tmivOchAvpzlhm-34" value="" style="html=1;shadow=0;dashed=0;shape=mxgraph.bootstrap.rrect;rSize=5;strokeColor=none;html=1;whiteSpace=wrap;fillColor=#6C767D;fontColor=#ffffff;sketch=0;" vertex="1" parent="Mxw5a7tmivOchAvpzlhm-1">
          <mxGeometry x="10" y="140" width="110" height="50" as="geometry" />
        </mxCell>
        <mxCell id="Mxw5a7tmivOchAvpzlhm-41" value="COMPANY NAME" style="text;html=1;align=center;verticalAlign=middle;whiteSpace=wrap;rounded=0;" vertex="1" parent="Mxw5a7tmivOchAvpzlhm-1">
          <mxGeometry x="10" y="140" width="100" height="30" as="geometry" />
        </mxCell>
        <mxCell id="Mxw5a7tmivOchAvpzlhm-56" value="USDOT#" style="text;html=1;align=left;verticalAlign=middle;whiteSpace=wrap;rounded=0;" vertex="1" parent="Mxw5a7tmivOchAvpzlhm-1">
          <mxGeometry x="10" y="160" width="100" height="30" as="geometry" />
        </mxCell>
        <mxCell id="Mxw5a7tmivOchAvpzlhm-61" value="" style="html=1;verticalLabelPosition=bottom;align=center;labelBackgroundColor=#ffffff;verticalAlign=top;strokeWidth=2;strokeColor=#000000;shadow=0;dashed=0;shape=mxgraph.ios7.icons.calendar;" vertex="1" parent="Mxw5a7tmivOchAvpzlhm-1">
          <mxGeometry x="660" y="160" width="150" height="120" as="geometry" />
        </mxCell>
        <mxCell id="Mxw5a7tmivOchAvpzlhm-62" value="" style="rounded=1;whiteSpace=wrap;html=1;strokeWidth=2;arcSize=1;" vertex="1" parent="Mxw5a7tmivOchAvpzlhm-1">
          <mxGeometry x="150" y="160" width="500" height="150" as="geometry" />
        </mxCell>
        <mxCell id="Mxw5a7tmivOchAvpzlhm-77" value="&lt;font style=&quot;font-size: 18px;&quot;&gt;Load Infomation&lt;/font&gt;" style="text;html=1;align=center;verticalAlign=middle;whiteSpace=wrap;rounded=0;" vertex="1" parent="Mxw5a7tmivOchAvpzlhm-1">
          <mxGeometry x="280" y="220" width="240" height="30" as="geometry" />
        </mxCell>
        <mxCell id="Mxw5a7tmivOchAvpzlhm-82" value="" style="rounded=1;whiteSpace=wrap;html=1;strokeWidth=2;arcSize=2;" vertex="1" parent="Mxw5a7tmivOchAvpzlhm-1">
          <mxGeometry x="409.99999999999994" y="330" width="240" height="110" as="geometry" />
        </mxCell>
        <mxCell id="Mxw5a7tmivOchAvpzlhm-84" value="" style="endArrow=none;html=1;rounded=0;exitX=0.006;exitY=0.203;exitDx=0;exitDy=0;exitPerimeter=0;entryX=1.005;entryY=0.202;entryDx=0;entryDy=0;entryPerimeter=0;" edge="1" parent="Mxw5a7tmivOchAvpzlhm-1" source="Mxw5a7tmivOchAvpzlhm-82" target="Mxw5a7tmivOchAvpzlhm-82">
          <mxGeometry width="50" height="50" relative="1" as="geometry">
            <mxPoint x="568.8" y="360" as="sourcePoint" />
            <mxPoint x="718.8" y="362" as="targetPoint" />
          </mxGeometry>
        </mxCell>
        <mxCell id="Mxw5a7tmivOchAvpzlhm-83" value="Completed Loads" style="text;html=1;align=center;verticalAlign=middle;whiteSpace=wrap;rounded=0;" vertex="1" parent="Mxw5a7tmivOchAvpzlhm-1">
          <mxGeometry x="464.99999999999994" y="330" width="100" height="20" as="geometry" />
        </mxCell>
        <mxCell id="Mxw5a7tmivOchAvpzlhm-88" value="" style="rounded=1;whiteSpace=wrap;html=1;strokeWidth=2;arcSize=2;" vertex="1" parent="Mxw5a7tmivOchAvpzlhm-1">
          <mxGeometry x="150" y="330" width="240" height="110.00000000000001" as="geometry" />
        </mxCell>
        <mxCell id="Mxw5a7tmivOchAvpzlhm-90" value="" style="endArrow=none;html=1;rounded=0;exitX=0.006;exitY=0.203;exitDx=0;exitDy=0;exitPerimeter=0;entryX=1.005;entryY=0.202;entryDx=0;entryDy=0;entryPerimeter=0;" edge="1" parent="Mxw5a7tmivOchAvpzlhm-1" source="Mxw5a7tmivOchAvpzlhm-88" target="Mxw5a7tmivOchAvpzlhm-88">
          <mxGeometry width="50" height="50" relative="1" as="geometry">
            <mxPoint x="149.4" y="364.44444444444446" as="sourcePoint" />
            <mxPoint x="299.4" y="366.8888888888889" as="targetPoint" />
          </mxGeometry>
        </mxCell>
        <mxCell id="Mxw5a7tmivOchAvpzlhm-89" value="Pick ups" style="text;html=1;align=center;verticalAlign=middle;whiteSpace=wrap;rounded=0;" vertex="1" parent="Mxw5a7tmivOchAvpzlhm-1">
          <mxGeometry x="205" y="330" width="100" height="24.444444444444446" as="geometry" />
        </mxCell>
        <mxCell id="Mxw5a7tmivOchAvpzlhm-94" value="" style="rounded=1;whiteSpace=wrap;html=1;strokeWidth=2;arcSize=2;" vertex="1" parent="Mxw5a7tmivOchAvpzlhm-1">
          <mxGeometry x="150" y="450" width="240" height="110.00000000000001" as="geometry" />
        </mxCell>
        <mxCell id="Mxw5a7tmivOchAvpzlhm-95" value="In Transit" style="text;html=1;align=center;verticalAlign=middle;whiteSpace=wrap;rounded=0;" vertex="1" parent="Mxw5a7tmivOchAvpzlhm-1">
          <mxGeometry x="205" y="450" width="100" height="24.444444444444446" as="geometry" />
        </mxCell>
        <mxCell id="Mxw5a7tmivOchAvpzlhm-96" value="" style="endArrow=none;html=1;rounded=0;exitX=0.006;exitY=0.203;exitDx=0;exitDy=0;exitPerimeter=0;entryX=1.005;entryY=0.202;entryDx=0;entryDy=0;entryPerimeter=0;" edge="1" source="Mxw5a7tmivOchAvpzlhm-94" target="Mxw5a7tmivOchAvpzlhm-94" parent="Mxw5a7tmivOchAvpzlhm-1">
          <mxGeometry width="50" height="50" relative="1" as="geometry">
            <mxPoint x="149.4" y="484.44444444444446" as="sourcePoint" />
            <mxPoint x="299.4" y="486.8888888888889" as="targetPoint" />
          </mxGeometry>
        </mxCell>
        <mxCell id="Mxw5a7tmivOchAvpzlhm-97" value="" style="rounded=1;whiteSpace=wrap;html=1;arcSize=2;strokeWidth=2;" vertex="1" parent="Mxw5a7tmivOchAvpzlhm-1">
          <mxGeometry x="660" y="290" width="150" height="135" as="geometry" />
        </mxCell>
        <mxCell id="Mxw5a7tmivOchAvpzlhm-98" value="" style="rounded=1;whiteSpace=wrap;html=1;arcSize=2;strokeWidth=2;" vertex="1" parent="Mxw5a7tmivOchAvpzlhm-1">
          <mxGeometry x="660" y="435" width="150" height="125" as="geometry" />
        </mxCell>
        <mxCell id="Mxw5a7tmivOchAvpzlhm-99" value="Weather Information" style="text;html=1;align=center;verticalAlign=middle;whiteSpace=wrap;rounded=0;" vertex="1" parent="Mxw5a7tmivOchAvpzlhm-1">
          <mxGeometry x="677.5" y="342.5" width="115" height="30" as="geometry" />
        </mxCell>
        <mxCell id="Mxw5a7tmivOchAvpzlhm-100" value="Map" style="text;html=1;align=center;verticalAlign=middle;whiteSpace=wrap;rounded=0;" vertex="1" parent="Mxw5a7tmivOchAvpzlhm-1">
          <mxGeometry x="700" y="482.5" width="60" height="30" as="geometry" />
        </mxCell>
        <mxCell id="Mxw5a7tmivOchAvpzlhm-101" value="" style="strokeWidth=1;shadow=0;dashed=0;align=center;html=1;shape=mxgraph.mockup.containers.browserWindow;rSize=0;strokeColor=#666666;strokeColor2=#008cff;strokeColor3=#c4c4c4;mainText=,;recursiveResize=0;" vertex="1" parent="1">
          <mxGeometry x="10" y="640" width="830" height="570" as="geometry" />
        </mxCell>
        <mxCell id="Mxw5a7tmivOchAvpzlhm-102" value="TrucDash" style="strokeWidth=1;shadow=0;dashed=0;align=center;html=1;shape=mxgraph.mockup.containers.anchor;fontSize=17;fontColor=#666666;align=left;whiteSpace=wrap;" vertex="1" parent="Mxw5a7tmivOchAvpzlhm-101">
          <mxGeometry x="60" y="12" width="110" height="26" as="geometry" />
        </mxCell>
        <mxCell id="Mxw5a7tmivOchAvpzlhm-103" value="https://www.truck-dash.com" style="strokeWidth=1;shadow=0;dashed=0;align=center;html=1;shape=mxgraph.mockup.containers.anchor;rSize=0;fontSize=17;fontColor=#666666;align=left;" vertex="1" parent="Mxw5a7tmivOchAvpzlhm-101">
          <mxGeometry x="130" y="60" width="250" height="26" as="geometry" />
        </mxCell>
        <mxCell id="Mxw5a7tmivOchAvpzlhm-104" value="TRUCK-DASH" style="html=1;shadow=0;dashed=0;fillColor=#000000;strokeColor=none;fontSize=16;fontColor=#ffffff;align=center;spacing=15;" vertex="1" parent="Mxw5a7tmivOchAvpzlhm-101">
          <mxGeometry y="110" width="830" height="30" as="geometry" />
        </mxCell>
        <mxCell id="Mxw5a7tmivOchAvpzlhm-105" value="" style="rounded=0;whiteSpace=wrap;html=1;fillColor=#000000;" vertex="1" parent="Mxw5a7tmivOchAvpzlhm-101">
          <mxGeometry y="140" width="130" height="430" as="geometry" />
        </mxCell>
        <mxCell id="Mxw5a7tmivOchAvpzlhm-106" value="" style="html=1;shadow=0;dashed=0;shape=mxgraph.bootstrap.rrect;rSize=5;strokeColor=none;html=1;whiteSpace=wrap;fillColor=#6C767D;fontColor=#ffffff;sketch=0;" vertex="1" parent="Mxw5a7tmivOchAvpzlhm-101">
          <mxGeometry x="10" y="230" width="110" height="130" as="geometry" />
        </mxCell>
        <mxCell id="Mxw5a7tmivOchAvpzlhm-107" value="&lt;font style=&quot;font-size: 10px;&quot;&gt;TRIPS&lt;/font&gt;" style="strokeColor=inherit;fillColor=inherit;gradientColor=inherit;fontColor=inherit;html=1;shadow=0;dashed=0;perimeter=none;whiteSpace=wrap;resizeWidth=1;sketch=0;" vertex="1" parent="Mxw5a7tmivOchAvpzlhm-106">
          <mxGeometry width="110.00000000000001" height="30" relative="1" as="geometry">
            <mxPoint y="30" as="offset" />
          </mxGeometry>
        </mxCell>
        <mxCell id="Mxw5a7tmivOchAvpzlhm-108" value="&lt;font style=&quot;font-size: 10px;&quot;&gt;FUEL LOG&lt;/font&gt;" style="strokeColor=inherit;fillColor=inherit;gradientColor=inherit;fontColor=inherit;html=1;shadow=0;dashed=0;perimeter=none;whiteSpace=wrap;resizeWidth=1;sketch=0;" vertex="1" parent="Mxw5a7tmivOchAvpzlhm-106">
          <mxGeometry width="110.00000000000001" height="30" relative="1" as="geometry">
            <mxPoint y="90" as="offset" />
          </mxGeometry>
        </mxCell>
        <mxCell id="Mxw5a7tmivOchAvpzlhm-109" value="&lt;font style=&quot;font-size: 10px;&quot;&gt;DRIVERS&lt;/font&gt;" style="strokeColor=inherit;fillColor=inherit;gradientColor=inherit;fontColor=inherit;html=1;shadow=1;dashed=0;perimeter=none;whiteSpace=wrap;resizeWidth=1;align=left;spacing=10;sketch=0;" vertex="1" parent="Mxw5a7tmivOchAvpzlhm-106">
          <mxGeometry width="110.00000000000001" height="30" relative="1" as="geometry">
            <mxPoint as="offset" />
          </mxGeometry>
        </mxCell>
        <mxCell id="Mxw5a7tmivOchAvpzlhm-110" value="" style="shape=triangle;direction=south;fillColor=#ffffff;strokeColor=none;perimeter=none;sketch=0;" vertex="1" parent="Mxw5a7tmivOchAvpzlhm-109">
          <mxGeometry x="1" y="0.5" width="10" height="5" relative="1" as="geometry">
            <mxPoint x="-17" y="-2.5" as="offset" />
          </mxGeometry>
        </mxCell>
        <mxCell id="Mxw5a7tmivOchAvpzlhm-111" value="&lt;font style=&quot;font-size: 10px;&quot;&gt;TRUCKS&lt;/font&gt;" style="strokeColor=inherit;fillColor=inherit;gradientColor=inherit;fontColor=inherit;html=1;shadow=1;dashed=0;shape=mxgraph.bootstrap.bottomButton;rSize=5;perimeter=none;whiteSpace=wrap;resizeWidth=1;resizeHeight=0;align=left;spacing=10;sketch=0;" vertex="1" parent="Mxw5a7tmivOchAvpzlhm-106">
          <mxGeometry y="1" width="110.00000000000001" height="30" relative="1" as="geometry">
            <mxPoint y="-70" as="offset" />
          </mxGeometry>
        </mxCell>
        <mxCell id="Mxw5a7tmivOchAvpzlhm-112" value="" style="shape=triangle;direction=south;fillColor=#ffffff;strokeColor=none;perimeter=none;sketch=0;" vertex="1" parent="Mxw5a7tmivOchAvpzlhm-111">
          <mxGeometry x="1" y="0.5" width="10" height="5" relative="1" as="geometry">
            <mxPoint x="-17" y="-2.5" as="offset" />
          </mxGeometry>
        </mxCell>
        <mxCell id="Mxw5a7tmivOchAvpzlhm-113" value="" style="html=1;shadow=0;dashed=0;shape=mxgraph.bootstrap.rrect;rSize=5;strokeColor=none;html=1;whiteSpace=wrap;fillColor=#6C767D;fontColor=#ffffff;sketch=0;" vertex="1" parent="Mxw5a7tmivOchAvpzlhm-101">
          <mxGeometry x="10" y="140" width="110" height="50" as="geometry" />
        </mxCell>
        <mxCell id="Mxw5a7tmivOchAvpzlhm-114" value="COMPANY NAME" style="text;html=1;align=center;verticalAlign=middle;whiteSpace=wrap;rounded=0;" vertex="1" parent="Mxw5a7tmivOchAvpzlhm-101">
          <mxGeometry x="10" y="140" width="100" height="30" as="geometry" />
        </mxCell>
        <mxCell id="Mxw5a7tmivOchAvpzlhm-115" value="USDOT#" style="text;html=1;align=left;verticalAlign=middle;whiteSpace=wrap;rounded=0;" vertex="1" parent="Mxw5a7tmivOchAvpzlhm-101">
          <mxGeometry x="10" y="160" width="100" height="30" as="geometry" />
        </mxCell>
        <mxCell id="Mxw5a7tmivOchAvpzlhm-116" value="" style="html=1;verticalLabelPosition=bottom;align=center;labelBackgroundColor=#ffffff;verticalAlign=top;strokeWidth=2;strokeColor=#000000;shadow=0;dashed=0;shape=mxgraph.ios7.icons.calendar;" vertex="1" parent="Mxw5a7tmivOchAvpzlhm-101">
          <mxGeometry x="660" y="160" width="150" height="120" as="geometry" />
        </mxCell>
        <mxCell id="Mxw5a7tmivOchAvpzlhm-117" value="" style="rounded=1;whiteSpace=wrap;html=1;strokeWidth=2;arcSize=1;" vertex="1" parent="Mxw5a7tmivOchAvpzlhm-101">
          <mxGeometry x="150" y="160" width="500" height="150" as="geometry" />
        </mxCell>
        <mxCell id="Mxw5a7tmivOchAvpzlhm-118" value="&lt;font style=&quot;font-size: 18px;&quot;&gt;Load Infomation&lt;/font&gt;" style="text;html=1;align=center;verticalAlign=middle;whiteSpace=wrap;rounded=0;" vertex="1" parent="Mxw5a7tmivOchAvpzlhm-101">
          <mxGeometry x="280" y="220" width="240" height="30" as="geometry" />
        </mxCell>
        <mxCell id="Mxw5a7tmivOchAvpzlhm-125" value="" style="rounded=1;whiteSpace=wrap;html=1;strokeWidth=2;arcSize=2;" vertex="1" parent="Mxw5a7tmivOchAvpzlhm-101">
          <mxGeometry x="150" y="350" width="500" height="210" as="geometry" />
        </mxCell>
        <mxCell id="Mxw5a7tmivOchAvpzlhm-128" value="" style="rounded=1;whiteSpace=wrap;html=1;arcSize=2;strokeWidth=2;" vertex="1" parent="Mxw5a7tmivOchAvpzlhm-101">
          <mxGeometry x="660" y="290" width="150" height="135" as="geometry" />
        </mxCell>
        <mxCell id="Mxw5a7tmivOchAvpzlhm-129" value="" style="rounded=1;whiteSpace=wrap;html=1;arcSize=2;strokeWidth=2;" vertex="1" parent="Mxw5a7tmivOchAvpzlhm-101">
          <mxGeometry x="660" y="435" width="150" height="125" as="geometry" />
        </mxCell>
        <mxCell id="Mxw5a7tmivOchAvpzlhm-130" value="Weather Information" style="text;html=1;align=center;verticalAlign=middle;whiteSpace=wrap;rounded=0;" vertex="1" parent="Mxw5a7tmivOchAvpzlhm-101">
          <mxGeometry x="677.5" y="342.5" width="115" height="30" as="geometry" />
        </mxCell>
        <mxCell id="Mxw5a7tmivOchAvpzlhm-131" value="Map" style="text;html=1;align=center;verticalAlign=middle;whiteSpace=wrap;rounded=0;" vertex="1" parent="Mxw5a7tmivOchAvpzlhm-101">
          <mxGeometry x="700" y="482.5" width="60" height="30" as="geometry" />
        </mxCell>
        <mxCell id="Mxw5a7tmivOchAvpzlhm-132" value="Drivers" style="text;html=1;align=center;verticalAlign=middle;whiteSpace=wrap;rounded=0;" vertex="1" parent="Mxw5a7tmivOchAvpzlhm-101">
          <mxGeometry x="150" y="320" width="60" height="30" as="geometry" />
        </mxCell>
        <mxCell id="Mxw5a7tmivOchAvpzlhm-133" value="Driver List" style="text;html=1;align=center;verticalAlign=middle;whiteSpace=wrap;rounded=0;" vertex="1" parent="Mxw5a7tmivOchAvpzlhm-101">
          <mxGeometry x="370" y="440" width="60" height="30" as="geometry" />
        </mxCell>
        <mxCell id="Mxw5a7tmivOchAvpzlhm-134" value="" style="strokeWidth=1;shadow=0;dashed=0;align=center;html=1;shape=mxgraph.mockup.containers.browserWindow;rSize=0;strokeColor=#666666;strokeColor2=#008cff;strokeColor3=#c4c4c4;mainText=,;recursiveResize=0;" vertex="1" parent="1">
          <mxGeometry x="10" y="1240" width="830" height="570" as="geometry" />
        </mxCell>
        <mxCell id="Mxw5a7tmivOchAvpzlhm-135" value="TrucDash" style="strokeWidth=1;shadow=0;dashed=0;align=center;html=1;shape=mxgraph.mockup.containers.anchor;fontSize=17;fontColor=#666666;align=left;whiteSpace=wrap;" vertex="1" parent="Mxw5a7tmivOchAvpzlhm-134">
          <mxGeometry x="60" y="12" width="110" height="26" as="geometry" />
        </mxCell>
        <mxCell id="Mxw5a7tmivOchAvpzlhm-136" value="https://www.truck-dash.com" style="strokeWidth=1;shadow=0;dashed=0;align=center;html=1;shape=mxgraph.mockup.containers.anchor;rSize=0;fontSize=17;fontColor=#666666;align=left;" vertex="1" parent="Mxw5a7tmivOchAvpzlhm-134">
          <mxGeometry x="130" y="60" width="250" height="26" as="geometry" />
        </mxCell>
        <mxCell id="Mxw5a7tmivOchAvpzlhm-137" value="TRUCK-DASH" style="html=1;shadow=0;dashed=0;fillColor=#000000;strokeColor=none;fontSize=16;fontColor=#ffffff;align=center;spacing=15;" vertex="1" parent="Mxw5a7tmivOchAvpzlhm-134">
          <mxGeometry y="110" width="830" height="30" as="geometry" />
        </mxCell>
        <mxCell id="Mxw5a7tmivOchAvpzlhm-138" value="" style="rounded=0;whiteSpace=wrap;html=1;fillColor=#000000;" vertex="1" parent="Mxw5a7tmivOchAvpzlhm-134">
          <mxGeometry y="140" width="130" height="430" as="geometry" />
        </mxCell>
        <mxCell id="Mxw5a7tmivOchAvpzlhm-139" value="" style="html=1;shadow=0;dashed=0;shape=mxgraph.bootstrap.rrect;rSize=5;strokeColor=none;html=1;whiteSpace=wrap;fillColor=#6C767D;fontColor=#ffffff;sketch=0;" vertex="1" parent="Mxw5a7tmivOchAvpzlhm-134">
          <mxGeometry x="10" y="230" width="110" height="130" as="geometry" />
        </mxCell>
        <mxCell id="Mxw5a7tmivOchAvpzlhm-140" value="&lt;font style=&quot;font-size: 10px;&quot;&gt;TRIPS&lt;/font&gt;" style="strokeColor=inherit;fillColor=inherit;gradientColor=inherit;fontColor=inherit;html=1;shadow=0;dashed=0;perimeter=none;whiteSpace=wrap;resizeWidth=1;sketch=0;" vertex="1" parent="Mxw5a7tmivOchAvpzlhm-139">
          <mxGeometry width="110.00000000000001" height="30" relative="1" as="geometry">
            <mxPoint y="30" as="offset" />
          </mxGeometry>
        </mxCell>
        <mxCell id="Mxw5a7tmivOchAvpzlhm-141" value="&lt;font style=&quot;font-size: 10px;&quot;&gt;FUEL LOG&lt;/font&gt;" style="strokeColor=inherit;fillColor=inherit;gradientColor=inherit;fontColor=inherit;html=1;shadow=0;dashed=0;perimeter=none;whiteSpace=wrap;resizeWidth=1;sketch=0;" vertex="1" parent="Mxw5a7tmivOchAvpzlhm-139">
          <mxGeometry width="110.00000000000001" height="30" relative="1" as="geometry">
            <mxPoint y="90" as="offset" />
          </mxGeometry>
        </mxCell>
        <mxCell id="Mxw5a7tmivOchAvpzlhm-142" value="&lt;font style=&quot;font-size: 10px;&quot;&gt;DRIVERS&lt;/font&gt;" style="strokeColor=inherit;fillColor=inherit;gradientColor=inherit;fontColor=inherit;html=1;shadow=1;dashed=0;perimeter=none;whiteSpace=wrap;resizeWidth=1;align=left;spacing=10;sketch=0;" vertex="1" parent="Mxw5a7tmivOchAvpzlhm-139">
          <mxGeometry width="110.00000000000001" height="30" relative="1" as="geometry">
            <mxPoint as="offset" />
          </mxGeometry>
        </mxCell>
        <mxCell id="Mxw5a7tmivOchAvpzlhm-143" value="" style="shape=triangle;direction=south;fillColor=#ffffff;strokeColor=none;perimeter=none;sketch=0;" vertex="1" parent="Mxw5a7tmivOchAvpzlhm-142">
          <mxGeometry x="1" y="0.5" width="10" height="5" relative="1" as="geometry">
            <mxPoint x="-17" y="-2.5" as="offset" />
          </mxGeometry>
        </mxCell>
        <mxCell id="Mxw5a7tmivOchAvpzlhm-144" value="&lt;font style=&quot;font-size: 10px;&quot;&gt;TRUCKS&lt;/font&gt;" style="strokeColor=inherit;fillColor=inherit;gradientColor=inherit;fontColor=inherit;html=1;shadow=1;dashed=0;shape=mxgraph.bootstrap.bottomButton;rSize=5;perimeter=none;whiteSpace=wrap;resizeWidth=1;resizeHeight=0;align=left;spacing=10;sketch=0;" vertex="1" parent="Mxw5a7tmivOchAvpzlhm-139">
          <mxGeometry y="1" width="110.00000000000001" height="30" relative="1" as="geometry">
            <mxPoint y="-70" as="offset" />
          </mxGeometry>
        </mxCell>
        <mxCell id="Mxw5a7tmivOchAvpzlhm-145" value="" style="shape=triangle;direction=south;fillColor=#ffffff;strokeColor=none;perimeter=none;sketch=0;" vertex="1" parent="Mxw5a7tmivOchAvpzlhm-144">
          <mxGeometry x="1" y="0.5" width="10" height="5" relative="1" as="geometry">
            <mxPoint x="-17" y="-2.5" as="offset" />
          </mxGeometry>
        </mxCell>
        <mxCell id="Mxw5a7tmivOchAvpzlhm-146" value="" style="html=1;shadow=0;dashed=0;shape=mxgraph.bootstrap.rrect;rSize=5;strokeColor=none;html=1;whiteSpace=wrap;fillColor=#6C767D;fontColor=#ffffff;sketch=0;" vertex="1" parent="Mxw5a7tmivOchAvpzlhm-134">
          <mxGeometry x="10" y="140" width="110" height="50" as="geometry" />
        </mxCell>
        <mxCell id="Mxw5a7tmivOchAvpzlhm-147" value="COMPANY NAME" style="text;html=1;align=center;verticalAlign=middle;whiteSpace=wrap;rounded=0;" vertex="1" parent="Mxw5a7tmivOchAvpzlhm-134">
          <mxGeometry x="10" y="140" width="100" height="30" as="geometry" />
        </mxCell>
        <mxCell id="Mxw5a7tmivOchAvpzlhm-148" value="USDOT#" style="text;html=1;align=left;verticalAlign=middle;whiteSpace=wrap;rounded=0;" vertex="1" parent="Mxw5a7tmivOchAvpzlhm-134">
          <mxGeometry x="10" y="160" width="100" height="30" as="geometry" />
        </mxCell>
        <mxCell id="Mxw5a7tmivOchAvpzlhm-149" value="" style="html=1;verticalLabelPosition=bottom;align=center;labelBackgroundColor=#ffffff;verticalAlign=top;strokeWidth=2;strokeColor=#000000;shadow=0;dashed=0;shape=mxgraph.ios7.icons.calendar;" vertex="1" parent="Mxw5a7tmivOchAvpzlhm-134">
          <mxGeometry x="660" y="160" width="150" height="120" as="geometry" />
        </mxCell>
        <mxCell id="Mxw5a7tmivOchAvpzlhm-150" value="" style="rounded=1;whiteSpace=wrap;html=1;strokeWidth=2;arcSize=1;" vertex="1" parent="Mxw5a7tmivOchAvpzlhm-134">
          <mxGeometry x="150" y="160" width="500" height="150" as="geometry" />
        </mxCell>
        <mxCell id="Mxw5a7tmivOchAvpzlhm-151" value="&lt;font style=&quot;font-size: 18px;&quot;&gt;Load Infomation&lt;/font&gt;" style="text;html=1;align=center;verticalAlign=middle;whiteSpace=wrap;rounded=0;" vertex="1" parent="Mxw5a7tmivOchAvpzlhm-134">
          <mxGeometry x="280" y="220" width="240" height="30" as="geometry" />
        </mxCell>
        <mxCell id="Mxw5a7tmivOchAvpzlhm-152" value="" style="rounded=1;whiteSpace=wrap;html=1;strokeWidth=2;arcSize=2;" vertex="1" parent="Mxw5a7tmivOchAvpzlhm-134">
          <mxGeometry x="150" y="350" width="500" height="210" as="geometry" />
        </mxCell>
        <mxCell id="Mxw5a7tmivOchAvpzlhm-153" value="" style="rounded=1;whiteSpace=wrap;html=1;arcSize=2;strokeWidth=2;" vertex="1" parent="Mxw5a7tmivOchAvpzlhm-134">
          <mxGeometry x="660" y="290" width="150" height="135" as="geometry" />
        </mxCell>
        <mxCell id="Mxw5a7tmivOchAvpzlhm-154" value="" style="rounded=1;whiteSpace=wrap;html=1;arcSize=2;strokeWidth=2;" vertex="1" parent="Mxw5a7tmivOchAvpzlhm-134">
          <mxGeometry x="660" y="435" width="150" height="125" as="geometry" />
        </mxCell>
        <mxCell id="Mxw5a7tmivOchAvpzlhm-155" value="Weather Information" style="text;html=1;align=center;verticalAlign=middle;whiteSpace=wrap;rounded=0;" vertex="1" parent="Mxw5a7tmivOchAvpzlhm-134">
          <mxGeometry x="677.5" y="342.5" width="115" height="30" as="geometry" />
        </mxCell>
        <mxCell id="Mxw5a7tmivOchAvpzlhm-156" value="Map" style="text;html=1;align=center;verticalAlign=middle;whiteSpace=wrap;rounded=0;" vertex="1" parent="Mxw5a7tmivOchAvpzlhm-134">
          <mxGeometry x="700" y="482.5" width="60" height="30" as="geometry" />
        </mxCell>
        <mxCell id="Mxw5a7tmivOchAvpzlhm-157" value="Trucks" style="text;html=1;align=center;verticalAlign=middle;whiteSpace=wrap;rounded=0;" vertex="1" parent="Mxw5a7tmivOchAvpzlhm-134">
          <mxGeometry x="150" y="320" width="60" height="30" as="geometry" />
        </mxCell>
        <mxCell id="Mxw5a7tmivOchAvpzlhm-158" value="Truck List" style="text;html=1;align=center;verticalAlign=middle;whiteSpace=wrap;rounded=0;" vertex="1" parent="Mxw5a7tmivOchAvpzlhm-134">
          <mxGeometry x="370" y="440" width="60" height="30" as="geometry" />
        </mxCell>
      </root>
    </mxGraphModel>
  </diagram>
</mxfile>
